# xmcd CD database file
#
# Track frame offsets:
#	150
#	6589
#	36873
#	59640
#	83807
#	111954
#	131065
#	152337
#	177249
#	202232
#	226374
#	241507
#
# Disc length: 3544 seconds
#
# Revision: 0
# Processed by: cddbd v1.5.1PL0 Copyright (c) Steve Scherf et al.
# Submitted via: CDex 1.51
#
DISCID=9f0dd60c
DTITLE=Jean Michel Jarre - Oxygene In Russia
DYEAR=1999
DGENRE=New Age
TTITLE0=Opening (Oxygene 12)
TTITLE1=Rendez-Vous 2
TTITLE2=Rendez-Vous 3 - Magnetic Fields 1
TTITLE3=Oxygene 11
TTITLE4=Oxygene 7
TTITLE5=Oxygene 10
TTITLE6=Oxygene 4
TTITLE7=Dianna
TTITLE8=Oxygene 12
TTITLE9=Revolution, Revolutions
TTITLE10=Rendez-Vous 4
TTITLE11=Oxygene 13
EXTD=YEAR: 1999
EXTT0=
EXTT1=
EXTT2=
EXTT3=
EXTT4=
EXTT5=
EXTT6=
EXTT7=
EXTT8=
EXTT9=
EXTT10=
EXTT11=
PLAYORDER=
